# xmcd
#
# Track frame offsets:
#	225
#	13716
#	24110
#	35071
#	45491
#	55634
#	67288
#	77717
#	89076
#	100124
#	111226
#	121505
#	132732
#	142478
#	152406
#	164712
#	175115
#	186847
#	194183
#	205835
#	217928
#	228838
#	239645
#	250614
#	262885
#	274611
#	284900
#	295157
#	305378
#	316498
#
# Disc length: 4363 seconds
#
# Revision: 1
# Processed by: cddbd v1.4PL0 Copyright (c) Steve Scherf et al.
# Submitted via: audiograbber 1.80
#
DISCID=c311081e
DTITLE=Various Artist - King Of New Orleans R'N'B
DYEAR=1900
DGENRE=
TTITLE0=Frankie Ford - Sea Cruise
TTITLE1=Huey 'Piano' Smith - Rockin' Pneumonia And The Boogie Woogie Flu
TTITLE2=Earl King - Those Lonely, Lonely Nights
TTITLE3=Junior Gordon - Blow Wind Blow
TTITLE4=Bobby Marchan - Little Chickee Wah Wah
TTITLE5=Jimmy Clanton - Just A Dream
TTITLE6=Joe Tex - Charlie Brown Got Expelled
TTITLE7=Huey And Curley - At The Mardi Gras
TTITLE8=Frankie Ford - Roberta
TTITLE9=Eddie Bo - I Love To Rock and Roll
TTITLE10=Bobby Marchan - Rockin' Behind The Iron Curtain
TTITLE11=Alvin 'Red' Tyler - Happy Sax
TTITLE12=Joe Tex - Granny Stole The Show
TTITLE13=Huey ' Piano' Smith - Little Liza Jane
TTITLE14=Joe And Jan - Gee Baby
TTITLE15=Earl King - (Come On) Let The Good Times Roll
TTITLE16=Sugar Boy Crawford - Have A Little Mercy
TTITLE17=Johnny Angel - Rockin' Teenage Wedding
TTITLE18=Huey 'Piano' Smith - Don't You Just Know It
TTITLE19=Calvin Spears - Doin' The Rock 'n' Roll
TTITLE20=Joe Tex - You Little Baby Faced Thing
TTITLE21=Frankie Ford - Alimony
TTITLE22=Lee Dorsey - Rock
TTITLE23=Huey 'Piano' Smith - Everybody's Wailin'
TTITLE24=Sugar Boy Crawford with Dr John - Jockomo
TTITLE25=Roland Cook - I've Got A Girl
TTITLE26=Jimmy Clanton - Go, Jimmy, Go
TTITLE27=Earl King - Everybody's Got Carried Away
TTITLE28=Alvin 'Red' Tyler - Snake Eyes
TTITLE29=Big Boy Miles with Dr John - New Orleans
EXTD=
EXTT0=
EXTT1=
EXTT2=
EXTT3=
EXTT4=
EXTT5=
EXTT6=
EXTT7=
EXTT8=
EXTT9=
EXTT10=
EXTT11=
EXTT12=
EXTT13=
EXTT14=
EXTT15=
EXTT16=
EXTT17=
EXTT18=
EXTT19=
EXTT20=
EXTT21=
EXTT22=
EXTT23=
EXTT24=
EXTT25=
EXTT26=
EXTT27=
EXTT28=
EXTT29=
PLAYORDER=
